<?xml version="1.0" encoding="utf-8"?>
<!-- Generator: Adobe Illustrator 27.2.0, SVG Export Plug-In . SVG Version: 6.00 Build 0)  -->
<svg version="1.1" id="Layer_1" xmlns="http://www.w3.org/2000/svg" xmlns:xlink="http://www.w3.org/1999/xlink" x="0px" y="0px"
	 viewBox="0 0 1920 407" style="enable-background:new 0 0 1920 407;" xml:space="preserve">
<style type="text/css">
	.st0{fill:#FFFFFF;}
</style>
<g>
	<path class="st0" d="M25.19,43.85v21.26H0.93V2.87h24.27v21.26h36.45V2.87h24.31v62.24H61.64V43.85H25.19z"/>
	<path class="st0" d="M124.36,2.87v62.24h-24.27V2.87H124.36z"/>
	<path class="st0" d="M130.75,83.35l6.07-18.2h-10.6V46.91h24.27v18.25l-10.6,18.2H130.75z"/>
	<path class="st0" d="M222.92,2.87v62.24h-24.27V2.87H222.92z"/>
	<path class="st0" d="M241.31,0.17c-2.18,7.97-6.26,18.12-8.92,22.48l-5.31,0.66c2.09-5.6,4.55-15.46,5.6-22.29L241.31,0.17z"/>
	<path class="st0" d="M244.42,2.87h30.38l24.27,31.12l24.31-31.12h30.33v62.24h-24.27V31.9l-24.31,33.2H293l-24.31-33.2v33.2h-24.27
		V2.87z"/>
	<path class="st0" d="M486.78,39.31c-1.53,21.02-19.96,27.32-42.37,27.32c-23.34-0.05-42.61-6.81-42.51-30.38v-4.54
		C401.8,8.19,421.07,1.43,444.41,1.34c22.41,0.05,40.85,6.34,42.37,27.32h-24.87c-2.27-6.11-9.17-7.55-17.51-7.55
		c-9.91,0.14-18.34,1.9-18.2,12.13v1.53c-0.14,10.14,8.29,11.99,18.2,12.13c8.34,0,15.28-1.48,17.51-7.6H486.78z"/>
	<path class="st0" d="M516.48,2.96h28.85l33.39,62.24H551.4l-4.91-10.65h-31.17l-4.91,10.65h-27.32L516.48,2.96z M522.36,39.36
		h17.09l-8.52-18.39L522.36,39.36z"/>
	<path class="st0" d="M604.86,2.87v62.24h-24.27V2.87H604.86z"/>
	<path class="st0" d="M696.98,31.72v4.54c0.09,23.53-19.08,30.33-42.47,30.38c-23.43-0.05-42.61-6.85-42.51-30.38v-4.54
		C611.9,8.14,631.08,1.38,654.51,1.34C677.94,1.34,696.98,8.19,696.98,31.72z M672.71,33.2c0.14-10.14-8.29-11.99-18.2-12.13
		c-9.96,0.14-18.39,1.99-18.25,12.13v1.53c-0.14,10.19,8.29,12.04,18.25,12.18c9.91-0.14,18.34-1.99,18.2-12.18V33.2z"/>
	<path class="st0" d="M703.38,83.35l6.07-18.2h-10.6V46.91h24.27v18.25l-10.6,18.2H703.38z"/>
	<path class="st0" d="M883.63,2.96h27.32L883.63,65.2h-28.85l-13.66-31.12L827.46,65.2h-28.85L771.28,2.96h27.32l14.4,39.41
		l14.45-39.41h27.32l14.4,39.41L883.63,2.96z"/>
	<path class="st0" d="M912.83,2.96h72.85v15.93H937.1v7.97h48.58v14.4H937.1v7.97h48.58V65.2h-72.85V2.96z"/>
	<path class="st0" d="M1022.83,2.87v42.51h48.58v19.73h-72.85V2.87H1022.83z"/>
	<path class="st0" d="M1158.16,39.31c-1.53,21.02-19.96,27.32-42.37,27.32c-23.34-0.05-42.61-6.81-42.51-30.38v-4.54
		c-0.09-23.53,19.17-30.29,42.51-30.38c22.41,0.05,40.85,6.34,42.37,27.32h-24.87c-2.27-6.11-9.17-7.55-17.5-7.55
		c-9.91,0.14-18.34,1.9-18.2,12.13v1.53c-0.14,10.14,8.29,11.99,18.2,12.13c8.34,0,15.28-1.48,17.5-7.6H1158.16z"/>
	<path class="st0" d="M1249.13,31.72v4.54c0.09,23.53-19.08,30.33-42.47,30.38c-23.43-0.05-42.61-6.85-42.51-30.38v-4.54
		c-0.09-23.57,19.08-30.33,42.51-30.38C1230.1,1.34,1249.13,8.19,1249.13,31.72z M1224.87,33.2c0.14-10.14-8.29-11.99-18.2-12.13
		c-9.96,0.14-18.39,1.99-18.25,12.13v1.53c-0.14,10.19,8.29,12.04,18.25,12.18c9.91-0.14,18.34-1.99,18.2-12.18V33.2z"/>
	<path class="st0" d="M1256.32,2.87h30.38l24.27,31.12l24.31-31.12h30.33v62.24h-24.27V31.9l-24.31,33.2h-12.13l-24.31-33.2v33.2
		h-24.27V2.87z"/>
	<path class="st0" d="M1379.76,2.96h72.85v15.93h-48.58v7.97h48.58v14.4h-48.58v7.97h48.58V65.2h-72.85V2.96z"/>
	<path class="st0" d="M1529.64,65.2V22.69h-28.85V2.96h81.97v19.73h-28.85V65.2H1529.64z"/>
	<path class="st0" d="M1669.61,31.72v4.54c0.09,23.53-19.08,30.33-42.47,30.38c-23.43-0.05-42.61-6.85-42.51-30.38v-4.54
		c-0.09-23.57,19.08-30.33,42.51-30.38C1650.57,1.34,1669.61,8.19,1669.61,31.72z M1645.34,33.2c0.14-10.14-8.29-11.99-18.2-12.13
		c-9.96,0.14-18.39,1.99-18.25,12.13v1.53c-0.14,10.19,8.29,12.04,18.25,12.18c9.91-0.14,18.34-1.99,18.2-12.18V33.2z"/>
	<path class="st0" d="M1717.79,2.87h30.38l24.27,31.12l24.31-31.12h30.33v62.24h-24.27V31.9l-24.31,33.2h-12.13l-24.31-33.2v33.2
		h-24.27V2.87z"/>
	<path class="st0" d="M1876.01,25.28l18.25-22.32h28.81l-34.92,40.98V65.2h-24.27V43.94l-34.92-40.98h28.85L1876.01,25.28z"/>
</g>
<g>
	<path class="st0" d="M195.4,262.66c79.3,3.19,190.73,7.56,190.52,64.18c0,64.52-93.04,79.81-192.85,79.81
		c-99.6-0.17-182.28-9.75-192.85-79.81h116.09c12.69,17.47,42.08,22.01,76.76,22.01c34.47,0,76.76-4.54,76.76-22.01
		c0-9.91-34.47-11.42-79.08-13.1c-79.3-3.19-190.73-7.56-190.52-64.01c0-64.52,93.04-79.98,192.85-79.98
		c99.6,0.5,182.28,9.41,192.85,79.98H269.84c-12.69-17.81-42.08-22.01-76.76-22.01c-34.47,0-76.76,4.03-76.76,22.01
		C116.32,259.64,150.79,260.98,195.4,262.66z"/>
	<path class="st0" d="M689.35,175.63c58.57-0.5,108.27,38.64,107.42,85.35c0.85,46.54-48.85,86.02-107.42,85.35H526.32v55.11h-110.8
		V175.63H689.35z M661.65,280.14c6.56,0,12.26-1.85,16.92-5.54c4.86-3.86,7.19-8.4,7.19-13.61c0-5.38-2.33-9.91-7.19-13.61
		c-4.65-3.86-10.36-5.71-16.92-5.71H526.32v38.48H661.65z"/>
	<path class="st0" d="M900.59,175.63h131.74l152.46,225.81h-124.76l-22.41-38.64H895.3l-22.41,38.64H748.13L900.59,175.63z
		 M927.44,307.69h78.03l-38.91-66.7L927.44,307.69z"/>
	<path class="st0" d="M1554.19,307.52c-6.98,76.28-91.14,99.13-193.48,99.13c-106.57-0.17-194.54-24.7-194.12-110.22v-16.47
		c-0.42-85.35,87.54-109.88,194.12-110.22c102.34,0.17,186.5,23.02,193.48,99.13h-113.55c-10.36-22.18-41.87-27.39-79.93-27.39
		c-45.25,0.5-83.74,6.89-83.1,44.02v5.54c-0.63,36.8,37.85,43.52,83.1,44.02c38.06,0,69.78-5.38,79.93-27.55H1554.19z"/>
	<path class="st0" d="M1587.16,175.63h332.62v57.8h-221.82v28.9h221.82v52.25h-221.82v28.9h221.82v57.96h-332.62V175.63z"/>
</g>
</svg>
